<mxfile host="app.diagrams.net" modified="2024-04-24T15:24:09.340Z" agent="Mozilla/5.0 (Macintosh; Intel Mac OS X 10_15_7) AppleWebKit/537.36 (KHTML, like Gecko) Chrome/124.0.0.0 Safari/537.36" version="24.3.0" etag="2LVcsH4NuVDN2-8-LMs0" type="github">
  <diagram name="Page-1" id="p7b2giYueXAm9h2foi8h">
    <mxGraphModel>
      <root>
        <mxCell id="0" />
        <mxCell id="1" parent="0" />
      </root>
    </mxGraphModel>
  </diagram>
</mxfile>
